# Blender v2.82 (sub 7) OBJ File: 'octahedron.blend'
# www.blender.org
mtllib octahedron.mtl
o Cube_Cube.001
v -0.044194 0.044194 0.000000
v -0.031250 -0.031250 -0.044194
v 0.031250 0.031250 0.044194
v -0.031250 -0.031250 0.044194
v 0.044194 -0.044194 0.000000
v 0.031250 0.031250 -0.044194
vt 0.250000 0.625000
vt 0.250000 0.750000
vt 0.125000 0.625000
vt 0.500000 0.875000
vt 0.625000 0.875000
vt 0.500000 1.000000
vt 0.250000 0.500000
vt 0.750000 0.625000
vt 0.750000 0.500000
vt 0.875000 0.625000
vt 0.375000 0.625000
vt 0.750000 0.750000
vt 0.625000 0.625000
vn -0.9856 -0.1691 -0.0000
vn -0.4082 0.4082 0.8165
vn -0.4082 0.4082 -0.8165
vn 0.1691 0.9856 0.0000
vn -0.1691 -0.9856 -0.0000
vn 0.4082 -0.4082 0.8165
vn 0.4082 -0.4082 -0.8165
vn 0.9856 0.1691 0.0000
usemtl None
s off
f 2/1/1 4/2/1 1/3/1
f 4/4/2 3/5/2 1/6/2
f 2/1/3 1/3/3 6/7/3
f 3/8/4 6/9/4 1/10/4
f 2/1/5 5/11/5 4/2/5
f 3/8/6 4/12/6 5/13/6
f 2/1/7 6/7/7 5/11/7
f 3/8/8 5/13/8 6/9/8
