# Blender v2.82 (sub 7) OBJ File: 'ovaloid.blend'
# www.blender.org
mtllib ovaloid.mtl
o Sphere_Sphere.001
v 0.000000 0.060052 -0.019134
v 0.000000 0.054046 -0.027779
v 0.000000 0.045962 -0.035355
v 0.000000 0.036112 -0.041573
v 0.000000 0.012681 -0.049039
v 0.000000 0.000000 -0.050000
v 0.000000 -0.012681 -0.049039
v 0.000000 -0.024874 -0.046194
v 0.000000 -0.036112 -0.041573
v 0.000000 -0.045962 -0.035355
v 0.000000 -0.054046 -0.027778
v 0.000000 -0.060052 -0.019134
v 0.000000 -0.063751 -0.009755
v 0.009755 0.063751 0.000000
v 0.019134 0.060052 0.000000
v 0.027779 0.054046 0.000000
v 0.035355 0.045962 0.000000
v 0.041573 0.036112 0.000000
v 0.046194 0.024874 0.000000
v 0.049039 0.012681 0.000000
v 0.050000 0.000000 0.000000
v 0.049039 -0.012681 0.000000
v 0.046194 -0.024874 0.000000
v 0.041573 -0.036112 0.000000
v 0.035355 -0.045962 0.000000
v 0.027779 -0.054046 0.000000
v 0.019134 -0.060052 0.000000
v 0.009755 -0.063751 0.000000
v -0.000000 0.063751 0.009755
v -0.000000 0.060052 0.019134
v -0.000000 0.054046 0.027779
v -0.000000 0.045962 0.035355
v -0.000000 0.036112 0.041573
v -0.000000 0.024874 0.046194
v -0.000000 0.012681 0.049039
v -0.000000 -0.000000 0.050000
v -0.000000 -0.012681 0.049039
v -0.000000 -0.024874 0.046194
v -0.000000 -0.036112 0.041573
v -0.000000 -0.045962 0.035355
v -0.000000 -0.054046 0.027779
v -0.000000 -0.060052 0.019134
v -0.000000 -0.063751 0.009755
v 0.000000 -0.065000 0.000000
v -0.000000 0.065000 0.000000
v -0.009755 0.063751 0.000000
v -0.019134 0.060052 0.000000
v -0.027779 0.054046 0.000000
v -0.035355 0.045962 0.000000
v -0.041573 0.036112 0.000000
v -0.046194 0.024874 0.000000
v -0.049039 0.012681 0.000000
v -0.050000 -0.000000 0.000000
v -0.049039 -0.012681 0.000000
v -0.046194 -0.024874 0.000000
v -0.041573 -0.036112 0.000000
v -0.035355 -0.045962 0.000000
v -0.027779 -0.054046 0.000000
v -0.019134 -0.060052 0.000000
v -0.009755 -0.063751 0.000000
v 0.000000 0.063751 -0.009755
v 0.000000 0.024874 -0.046194
vt 0.750000 0.312500
vt 0.750000 0.375000
vt 0.500000 0.375000
vt 0.500000 0.312500
vt 0.750000 0.750000
vt 0.750000 0.812500
vt 0.500000 0.812500
vt 0.500000 0.750000
vt 0.750000 0.250000
vt 0.500000 0.250000
vt 0.750000 0.687500
vt 0.500000 0.687500
vt 0.750000 0.187500
vt 0.500000 0.187500
vt 0.750000 0.625000
vt 0.500000 0.625000
vt 0.750000 0.125000
vt 0.500000 0.125000
vt 0.750000 0.562500
vt 0.500000 0.562500
vt 0.750000 0.062500
vt 0.500000 0.062500
vt 0.750000 0.500000
vt 0.500000 0.500000
vt 0.750000 0.937500
vt 0.625000 1.000000
vt 0.500000 0.937500
vt 0.625000 0.000000
vt 0.750000 0.437500
vt 0.500000 0.437500
vt 0.750000 0.875000
vt 0.500000 0.875000
vt 0.250000 0.937500
vt 0.250000 0.875000
vt 0.250000 0.437500
vt 0.250000 0.375000
vt 0.250000 0.812500
vt 0.250000 0.312500
vt 0.250000 0.750000
vt 0.250000 0.250000
vt 0.250000 0.687500
vt 0.250000 0.187500
vt 0.250000 0.625000
vt 0.250000 0.125000
vt 0.250000 0.562500
vt 0.250000 0.062500
vt 0.250000 0.500000
vt 0.374999 1.000000
vt 0.375000 0.000000
vt 0.000000 0.687500
vt 0.000000 0.625000
vt 0.000000 0.187500
vt 0.000000 0.125000
vt 0.000000 0.562500
vt 0.000000 0.062500
vt 0.000000 0.500000
vt 0.125000 1.000000
vt 0.000000 0.937500
vt 0.125000 0.000000
vt 0.000000 0.437500
vt 0.000000 0.875000
vt 0.000000 0.375000
vt 0.000000 0.812500
vt 0.000000 0.312500
vt 0.000000 0.750000
vt 0.000000 0.250000
vt 1.000000 0.375000
vt 1.000000 0.437500
vt 1.000000 0.812500
vt 1.000000 0.875000
vt 1.000000 0.312500
vt 1.000000 0.750000
vt 1.000000 0.250000
vt 1.000000 0.687500
vt 1.000000 0.187500
vt 1.000000 0.625000
vt 1.000000 0.125000
vt 1.000000 0.562500
vt 1.000000 0.062500
vt 1.000000 0.500000
vt 1.000000 0.937500
vt 0.875000 1.000000
vt 0.875000 0.000000
vn 0.6790 -0.2792 -0.6790
vn 0.5894 0.5525 -0.5894
vn 0.6457 -0.4076 -0.6457
vn 0.6457 0.4076 -0.6457
vn 0.5894 -0.5525 -0.5894
vn 0.6790 0.2792 -0.6790
vn 0.4956 -0.7133 -0.4956
vn 0.6977 0.1628 -0.6977
vn 0.3444 -0.8734 -0.3444
vn 0.7061 0.0535 -0.7061
vn 0.1260 0.9840 -0.1260
vn 0.1260 -0.9840 -0.1260
vn 0.7061 -0.0535 -0.7061
vn 0.3444 0.8734 -0.3444
vn 0.6977 -0.1628 -0.6977
vn 0.4956 0.7133 -0.4956
vn 0.3444 0.8734 0.3444
vn 0.6977 -0.1628 0.6977
vn 0.4956 0.7133 0.4956
vn 0.6790 -0.2792 0.6790
vn 0.5894 0.5525 0.5894
vn 0.6457 -0.4076 0.6457
vn 0.6457 0.4076 0.6457
vn 0.5894 -0.5525 0.5894
vn 0.6790 0.2792 0.6790
vn 0.4956 -0.7133 0.4956
vn 0.6977 0.1628 0.6977
vn 0.3444 -0.8734 0.3444
vn 0.7061 0.0535 0.7061
vn 0.1260 0.9840 0.1260
vn 0.1260 -0.9840 0.1260
vn 0.7061 -0.0535 0.7061
vn -0.6790 0.2792 0.6790
vn -0.4956 -0.7133 0.4956
vn -0.6977 0.1628 0.6977
vn -0.3444 -0.8734 0.3444
vn -0.7061 0.0535 0.7061
vn -0.1260 0.9840 0.1260
vn -0.1260 -0.9840 0.1260
vn -0.7061 -0.0535 0.7061
vn -0.3444 0.8734 0.3444
vn -0.6977 -0.1628 0.6977
vn -0.4956 0.7133 0.4956
vn -0.6790 -0.2792 0.6790
vn -0.5894 0.5525 0.5894
vn -0.6457 -0.4076 0.6457
vn -0.6457 0.4076 0.6457
vn -0.5894 -0.5525 0.5894
vn -0.6977 -0.1628 -0.6977
vn -0.4956 0.7133 -0.4956
vn -0.6790 -0.2792 -0.6790
vn -0.5894 0.5525 -0.5894
vn -0.6457 -0.4076 -0.6457
vn -0.6457 0.4076 -0.6457
vn -0.5894 -0.5525 -0.5894
vn -0.6790 0.2792 -0.6790
vn -0.4956 -0.7133 -0.4956
vn -0.6977 0.1628 -0.6977
vn -0.3444 -0.8734 -0.3444
vn -0.7061 0.0535 -0.7061
vn -0.1260 0.9840 -0.1260
vn -0.1260 -0.9840 -0.1260
vn -0.7061 -0.0535 -0.7061
vn -0.3444 0.8734 -0.3444
usemtl None
s off
f 9/1/1 8/2/1 23/3/1 24/4/1
f 3/5/2 2/6/2 16/7/2 17/8/2
f 10/9/3 9/1/3 24/4/3 25/10/3
f 4/11/4 3/5/4 17/8/4 18/12/4
f 11/13/5 10/9/5 25/10/5 26/14/5
f 62/15/6 4/11/6 18/12/6 19/16/6
f 12/17/7 11/13/7 26/14/7 27/18/7
f 5/19/8 62/15/8 19/16/8 20/20/8
f 13/21/9 12/17/9 27/18/9 28/22/9
f 6/23/10 5/19/10 20/20/10 21/24/10
f 61/25/11 45/26/11 14/27/11
f 44/28/12 13/21/12 28/22/12
f 7/29/13 6/23/13 21/24/13 22/30/13
f 1/31/14 61/25/14 14/27/14 15/32/14
f 8/2/15 7/29/15 22/30/15 23/3/15
f 2/6/16 1/31/16 15/32/16 16/7/16
f 15/32/17 14/27/17 29/33/17 30/34/17
f 23/3/18 22/30/18 37/35/18 38/36/18
f 16/7/19 15/32/19 30/34/19 31/37/19
f 24/4/20 23/3/20 38/36/20 39/38/20
f 17/8/21 16/7/21 31/37/21 32/39/21
f 25/10/22 24/4/22 39/38/22 40/40/22
f 18/12/23 17/8/23 32/39/23 33/41/23
f 26/14/24 25/10/24 40/40/24 41/42/24
f 19/16/25 18/12/25 33/41/25 34/43/25
f 27/18/26 26/14/26 41/42/26 42/44/26
f 20/20/27 19/16/27 34/43/27 35/45/27
f 28/22/28 27/18/28 42/44/28 43/46/28
f 21/24/29 20/20/29 35/45/29 36/47/29
f 14/27/30 45/48/30 29/33/30
f 44/49/31 28/22/31 43/46/31
f 22/30/32 21/24/32 36/47/32 37/35/32
f 34/43/33 33/41/33 50/50/33 51/51/33
f 42/44/34 41/42/34 58/52/34 59/53/34
f 35/45/35 34/43/35 51/51/35 52/54/35
f 43/46/36 42/44/36 59/53/36 60/55/36
f 36/47/37 35/45/37 52/54/37 53/56/37
f 29/33/38 45/57/38 46/58/38
f 44/59/39 43/46/39 60/55/39
f 37/35/40 36/47/40 53/56/40 54/60/40
f 30/34/41 29/33/41 46/58/41 47/61/41
f 38/36/42 37/35/42 54/60/42 55/62/42
f 31/37/43 30/34/43 47/61/43 48/63/43
f 39/38/44 38/36/44 55/62/44 56/64/44
f 32/39/45 31/37/45 48/63/45 49/65/45
f 40/40/46 39/38/46 56/64/46 57/66/46
f 33/41/47 32/39/47 49/65/47 50/50/47
f 41/42/48 40/40/48 57/66/48 58/52/48
f 55/67/49 54/68/49 7/29/49 8/2/49
f 48/69/50 47/70/50 1/31/50 2/6/50
f 56/71/51 55/67/51 8/2/51 9/1/51
f 49/72/52 48/69/52 2/6/52 3/5/52
f 57/73/53 56/71/53 9/1/53 10/9/53
f 50/74/54 49/72/54 3/5/54 4/11/54
f 58/75/55 57/73/55 10/9/55 11/13/55
f 51/76/56 50/74/56 4/11/56 62/15/56
f 59/77/57 58/75/57 11/13/57 12/17/57
f 52/78/58 51/76/58 62/15/58 5/19/58
f 60/79/59 59/77/59 12/17/59 13/21/59
f 53/80/60 52/78/60 5/19/60 6/23/60
f 46/81/61 45/82/61 61/25/61
f 44/83/62 60/79/62 13/21/62
f 54/68/63 53/80/63 6/23/63 7/29/63
f 47/70/64 46/81/64 61/25/64 1/31/64
